<?xml version="1.0" encoding="utf-8"?>
<!-- Generator: Adobe Illustrator 19.2.1, SVG Export Plug-In . SVG Version: 6.00 Build 0)  -->
<svg version="1.1" id="layer" xmlns="http://www.w3.org/2000/svg" xmlns:xlink="http://www.w3.org/1999/xlink" x="0px" y="0px"
	 viewBox="0 0 652 652" style="enable-background:new 0 0 652 652;" xml:space="preserve">
<style type="text/css">
	.st0{fill:#F4A000;}
	.st1{fill:#B5BEC0;}
	.st2{fill:#B29451;}
	.st3{fill:#FFFFFF;}
</style>
<g>
	<rect x="326" y="80.7" class="st0" width="347.2" height="347.4"/>
	<path class="st1" d="M317.7,428.1v4.1h8.4v-4.1h347.2V80.7H326.1v-4.4h-8.4v4.4H-32.1v347.3H317.7z M677.4,432.3L677.4,432.3v-4.2
		V432.3 M681.6,436.5H-40.5V72.4h722.1v359.9V436.5"/>
</g>
<g>
	<polygon class="st2" points="673.2,428.1 326.1,428.1 326.1,428.1 673.2,428.1 673.2,80.7 326.1,80.7 326.1,80.7 673.2,80.7 	"/>
	<polygon class="st1" points="326.1,432.2 317.7,432.2 317.7,428.1 317.7,80.7 317.7,76.4 326.1,76.4 326.1,80.7 326,80.7 
		326,428.1 326.1,428.1 	"/>
	<polygon class="st2" points="326.1,428.1 326,428.1 326,80.7 326.1,80.7 326.1,80.7 326.1,428.1 	"/>
	<polygon class="st1" points="117,357 59.9,357 59.9,161.6 117,161.6 117,238.6 101.6,238.6 101.6,277.4 117,277.4 	"/>
	<polygon class="st1" points="180.4,277.4 117,277.4 101.6,277.4 101.6,238.6 117,238.6 180.4,238.6 	"/>
	<polygon class="st1" points="237.6,357.1 180.4,357.1 180.4,277.4 180.4,238.6 180.4,161.7 237.6,161.7 	"/>
	<path class="st3" d="M527.1,162.1c8.7,0,18.9,1.3,25.9,4.1c7,2.8,13,6.7,18,11.6c5,4.9,8.8,10.6,11.4,17c2.6,6.5,4,13.4,4,20.9
		c0,11.5-7.8,26.4-15.8,31.8c-8,5.4-16.1,10.9-34.1,11.4l0,1.6l19,3.4c5.3,1.4,9.4,4.4,12.6,7.6c4.1,4.1,5.2,6.8,7.4,10.9
		c2.2,4.1,3.1,8.7,4.1,13.5c1,4.9,1.7,9.8,2,14.7c0.2,3.1,0.4,6.7,0.5,10.9s0.5,8.4,0.9,12.8c0.5,4.4,1.2,8.5,2.2,12.4
		c1,3.9,2.5,7.2,4.5,9.9h-56.9c-2.4-6.2-3.8-13.5-4.3-22c-0.5-8.5-1.4-16.7-2.4-24.5c-1.5-10.2-3.6-16-8.4-20.7
		c-4.7-4.7-13.4-5.5-24.1-5.5l-18.6,0v72.7l-52.8,0V162.1H527.1z M500,246.8c9.8,0,17.2-2.2,22.1-6.5c4.9-4.4,7.3-7.8,7.3-17.7
		c0-9.5-2.4-12.3-7.4-16.6c-4.9-4.3-12.3-6.4-22.1-6.4l-25-0.3l0.1,47.2L500,246.8z M536.5,260.5l8.4,1.1l3.3,0.5l3.6,0.8l3.8,0.9
		c5.3,1.5,9.4,4.5,12.6,7.8"/>
	<path class="st3" d="M527.1,162.1v0.5c8.7,0,18.8,1.3,25.7,4.1c6.9,2.8,12.9,6.6,17.8,11.5c4.9,4.9,8.7,10.5,11.3,16.9
		c2.6,6.4,3.9,13.3,3.9,20.7c0,5.6-1.9,12.2-4.9,17.9c-2.9,5.8-6.9,10.8-10.7,13.4c-8,5.4-15.9,10.8-33.8,11.3l-0.5,0l-0.1,2.5
		l19.5,3.5l0.1-0.5l-0.1,0.5c5.1,1.4,9.2,4.3,12.4,7.5c4,4,5.1,6.7,7.3,10.8c2.1,4,3.1,8.5,4.1,13.4c1,4.9,1.7,9.7,2,14.6l0.5,0
		l-0.5,0c0.2,3.1,0.4,6.7,0.5,10.9c0.2,4.2,0.5,8.5,1,12.8c0.4,4.4,1.2,8.5,2.2,12.4c1,4,2.5,7.3,4.6,10.1l0.4-0.3v-0.5h-56.9v0.5
		l0.5-0.2c-2.3-6.1-3.8-13.4-4.3-21.9c-0.5-8.5-1.4-16.7-2.4-24.5h0c-0.7-5.1-1.6-9.1-3-12.5c-1.3-3.4-3.1-6.1-5.5-8.5
		c-2.5-2.5-5.9-3.9-10.1-4.7c-4.1-0.8-9-1-14.4-1l-19.1,0V356l-51.8,0V162.6h104.4V162.1v-0.5H421.6v195.5l53.9,0v-72.7l18.1,0
		c5.4,0,10.2,0.2,14.2,1c4,0.8,7.3,2.1,9.5,4.4c2.3,2.3,4,4.9,5.3,8.1c1.3,3.3,2.2,7.2,2.9,12.3v0v0c1.1,7.8,1.9,15.9,2.4,24.4
		c0.5,8.6,2,15.9,4.4,22.2l0.1,0.3h58.3l-0.6-0.8c-1.9-2.6-3.4-5.9-4.4-9.7c-1-3.9-1.7-8-2.2-12.3c-0.5-4.3-0.8-8.6-1-12.7
		c-0.2-4.2-0.4-7.8-0.5-10.9v0c-0.4-4.9-1-9.8-2-14.7c-1-4.9-2-9.5-4.2-13.7c-2.2-4-3.3-6.9-7.4-11c-3.3-3.3-7.5-6.3-12.8-7.7h0
		L537,260l0-1.1l-0.5,0l0,0.5c18.1-0.5,26.3-6.1,34.3-11.5c4.1-2.8,8.1-7.9,11.1-13.8c3-5.9,5-12.5,5-18.4c0-7.5-1.3-14.5-4-21.1
		c-2.7-6.5-6.5-12.3-11.6-17.2c-5.1-5-11.1-8.9-18.2-11.7c-7.1-2.9-17.3-4.2-26.1-4.2V162.1z M500,246.8v0.5
		c9.9,0,17.4-2.2,22.4-6.7c2.5-2.2,4.4-4.2,5.6-7c1.3-2.7,1.9-6.1,1.9-11.1c0-4.8-0.6-7.9-1.9-10.5c-1.3-2.5-3.2-4.4-5.7-6.5
		c-5.1-4.4-12.6-6.5-22.4-6.5v0.5l0-0.5l-25.6-0.3l0.1,48.3l25.5,0.3h0V246.8v-0.5l-24.5-0.3l0-46.2l24.5,0.3c9.7,0,17,2.1,21.7,6.3
		c2.5,2.1,4.2,3.9,5.4,6.2c1.2,2.3,1.8,5.3,1.8,10c0,4.9-0.6,8.1-1.8,10.7c-1.2,2.5-2.9,4.4-5.4,6.6c-4.8,4.3-12,6.4-21.7,6.4V246.8
		v-0.5V246.8z M536.4,261l8.4,1.1l3.3,0.5l3.6,0.8l3.7,0.9l0.1-0.5l-0.1,0.5c5.1,1.4,9.2,4.4,12.4,7.6l0.7-0.7
		c-3.3-3.3-7.4-6.4-12.8-7.9l-3.8-0.9l-3.6-0.8l-3.3-0.5l-8.4-1.1L536.4,261z"/>
	<path class="st1" d="M-14.3,552.1c-2.9,0-5.7-0.3-8.5-0.8c-2.7-0.5-5.1-1.3-7.1-2.5c-2-1.1-3.7-2.6-5-4.5l0.1,0.1l-0.1-0.1
		c-1-1.4-1.6-3.1-1.9-5.2h10.2c0.2,1,0.5,2,1.1,2.8l1.3-0.9l-1.3,0.9c0.7,1.2,1.7,2.1,2.9,2.9c1.2,0.7,2.5,1.2,3.9,1.6
		c1.4,0.3,2.9,0.5,4.4,0.5c1.1,0,2.2-0.1,3.4-0.3c1.2-0.2,2.4-0.6,3.4-1.1l-0.2,0.1l0.2-0.1c1.1-0.5,2-1.3,2.8-2.2l0,0l0,0
		c0.9-1.1,1.3-2.4,1.2-3.8c0-0.7-0.1-1.3-0.4-1.9c-0.4-0.9-1.1-1.7-1.9-2.3c-0.8-0.6-1.8-1.1-3-1.5c-2.9-1-6.9-1.9-12-2.9v0
		c-2-0.4-4-0.9-5.9-1.4l-0.1,0l0.1,0c-1.8-0.5-3.5-1.2-4.9-2.1l0.1,0l-0.1,0c-1.3-0.8-2.4-1.8-3.2-3c-0.7-1.1-1.1-2.5-1.1-4.3
		c0-2.8,0.6-4.9,1.7-6.4c1.1-1.7,2.6-3,4.5-4c2-1,4.2-1.7,6.7-2.2c2.6-0.4,5.2-0.6,7.9-0.6s5.3,0.2,7.8,0.7c2.5,0.4,4.6,1.2,6.5,2.2
		c1.9,1,3.4,2.4,4.6,4c0.9,1.2,1.5,2.7,1.9,4.6H-4.4c-0.2-0.8-0.5-1.6-0.9-2.3c-0.7-1.1-1.7-1.9-2.9-2.5c-2.1-1-4.5-1.4-7.2-1.4
		c-0.9,0-1.8,0-2.7,0.1c-1,0.1-2,0.3-3,0.7c-1,0.4-1.8,0.9-2.5,1.7c-0.4,0.4-0.7,1-0.9,1.6c-0.2,0.6-0.3,1.2-0.3,1.8
		c0,0.8,0.2,1.6,0.5,2.3c0.3,0.7,0.9,1.3,1.5,1.8c1.1,0.9,2.5,1.5,4.1,2c1.6,0.5,3.3,0.9,5.3,1.2c1.9,0.4,3.9,0.7,5.8,1.2h0
		c2,0.4,4,0.9,5.9,1.5c1.8,0.6,3.4,1.3,4.8,2.2c1.4,0.9,2.4,1.9,3.2,3.2c0.7,1.2,1.1,2.6,1.2,4.6c0,2.8-0.6,5-1.8,6.8
		C4.6,546.4,3,547.8,1,549c-2,1.1-4.3,2-7,2.4C-8.7,551.9-11.5,552.1-14.3,552.1"/>
	<path class="st1" d="M-8.8,542.6l0.1-0.1L-8.8,542.6 M-34.8,544.5L-34.8,544.5L-34.8,544.5 M-7.2,507.4L-7.2,507.4 M-34.9,544.4
		c1.3,1.9,2.9,3.3,5,4.5c2,1.2,4.4,2,7.1,2.5c2.8,0.5,5.6,0.8,8.5,0.8c2.8,0,5.6-0.2,8.3-0.7c2.7-0.5,5-1.3,7-2.4
		c2-1.1,3.6-2.6,4.8-4.5c1.1-1.7,1.8-4,1.8-6.8c0-1.9-0.4-3.4-1.2-4.6c-0.8-1.3-1.9-2.3-3.2-3.2c-1.4-0.9-3-1.6-4.8-2.2
		c-1.9-0.6-3.9-1.1-5.9-1.5h0c-2-0.4-3.9-0.8-5.8-1.1c-2-0.4-3.7-0.8-5.3-1.3c-1.6-0.5-3-1.1-4.1-2c-0.6-0.5-1.1-1.1-1.5-1.8
		c-0.4-0.7-0.5-1.5-0.5-2.2c0-0.6,0.1-1.2,0.3-1.8c0.2-0.6,0.5-1.1,0.9-1.6c0.7-0.7,1.6-1.3,2.5-1.7c0.9-0.4,1.9-0.6,3-0.7
		c1-0.1,1.9-0.1,2.7-0.1c2.7,0,5.1,0.5,7.2,1.4C-7,514-6,514.9-5.3,516c0.4,0.7,0.7,1.5,0.9,2.3H5.9c-0.4-1.8-1-3.4-1.9-4.6
		c-1.2-1.7-2.7-3-4.6-4.1c-1.9-1-4.1-1.8-6.5-2.2c-2.5-0.5-5.1-0.7-7.8-0.7s-5.3,0.2-7.9,0.6c-2.5,0.4-4.7,1.2-6.7,2.2
		c-1.9,1-3.4,2.3-4.5,4c-1.1,1.6-1.7,3.7-1.7,6.4c0,1.8,0.4,3.2,1.1,4.3c0.8,1.2,1.8,2.2,3.2,3l0.1,0l-0.1,0c1.4,0.8,3,1.5,4.9,2.1
		l-0.1,0l0.1,0c1.9,0.6,3.9,1,5.9,1.4c5.1,1,9.1,1.9,12,2.9c1.2,0.4,2.2,0.9,3,1.5c0.8,0.6,1.5,1.4,1.9,2.3c0.3,0.6,0.4,1.3,0.4,1.9
		c0,1.4-0.4,2.7-1.2,3.8l0,0l0,0c-0.7,0.9-1.7,1.7-2.8,2.2l-0.2,0.1l0.2-0.1c-1,0.5-2.2,0.9-3.4,1.1c-1.2,0.2-2.3,0.3-3.4,0.3
		c-1.5,0-3-0.1-4.4-0.5c-1.4-0.3-2.8-0.9-3.9-1.6c-1.2-0.7-2.2-1.7-2.9-2.9l1.3-0.9l1.3-0.9l-1.3,0.9l-1.3,0.9
		c-0.5-0.8-0.9-1.8-1.1-2.8h-10.2C-36.5,541.3-35.9,543-34.9,544.4 M-14.3,555.3c-3.1,0-6.1-0.3-9-0.8c-3-0.6-5.7-1.5-8.1-2.9
		c-2.4-1.4-4.4-3.2-6-5.4c-1.6-2.3-2.5-5.2-2.6-8.6l-0.1-1.6h16.6v1.6c0,1.1,0.2,2,0.7,2.7c0.5,0.8,1.1,1.4,1.9,1.9h0
		c0.8,0.5,1.8,0.9,2.9,1.2h0h0c1.2,0.3,2.4,0.4,3.7,0.4c0.9,0,1.8-0.1,2.8-0.3c1-0.2,1.8-0.5,2.6-0.8c0.7-0.4,1.3-0.8,1.7-1.4
		c0.4-0.4,0.6-1,0.6-1.8c0-0.3-0.1-0.5-0.1-0.7c-0.1-0.2-0.2-0.4-0.5-0.7c-0.5-0.5-1.3-1-2.6-1.4c-2.7-0.9-6.6-1.9-11.6-2.8l0,0
		c-2.1-0.4-4.1-0.9-6.2-1.5c-2.1-0.6-3.9-1.4-5.6-2.4c-1.7-1-3.1-2.4-4.2-4c-1.1-1.7-1.6-3.7-1.6-6c0-3.2,0.7-6,2.2-8.2
		c1.4-2.1,3.4-3.8,5.7-5h0c2.3-1.2,4.8-2,7.6-2.5c2.7-0.4,5.5-0.7,8.4-0.7s5.7,0.3,8.4,0.7c2.8,0.5,5.3,1.4,7.5,2.6
		c2.2,1.2,4.1,2.9,5.6,4.9c1.5,2.1,2.4,4.8,2.7,7.9l0.2,1.7H-7.2l-0.1-1.4c-0.1-1-0.3-1.8-0.7-2.4c-0.4-0.6-0.8-1-1.5-1.3
		c-1.6-0.7-3.6-1.1-5.9-1.1c-0.7,0-1.6,0-2.4,0.1c-0.8,0.1-1.5,0.2-2.1,0.5l-0.1,0l0.1,0c-0.6,0.2-1,0.5-1.4,0.9
		c-0.1,0.1-0.2,0.3-0.3,0.4c-0.1,0.2-0.1,0.4-0.1,0.8c0,0.4,0.1,0.6,0.2,0.8c0.1,0.2,0.3,0.5,0.6,0.7c0.7,0.6,1.8,1.1,3.1,1.5
		c1.4,0.4,3.1,0.8,5,1.2c1.9,0.4,3.9,0.8,5.9,1.2c2.1,0.4,4.1,0.9,6.2,1.5h0c2.1,0.6,3.9,1.5,5.6,2.6c1.7,1.1,3.1,2.5,4.2,4.1
		c1.1,1.8,1.6,3.9,1.6,6.2c0,3.3-0.7,6.2-2.3,8.5c-1.5,2.3-3.5,4.1-5.9,5.5c-2.4,1.4-5,2.3-8,2.8C-8.4,555-11.3,555.3-14.3,555.3"/>
	<path class="st1" d="M567.7,553h-16.1v-24.9c0-1.5-0.1-3-0.2-4.4c-0.1-1.4-0.6-2.7-1.2-3.9c-0.7-1.1-1.7-2-3-2.6
		c-0.6-0.3-1-0.5-1.5-0.7c-0.6-0.1-1.2-0.2-2.2-0.2c-0.2,0-0.4,0-0.5,0c-0.4,0-0.7,0-1,0.1c-0.4,0.1-0.8,0.2-1.1,0.4
		c-0.3,0.2-0.6,0.4-1,0.6c-1.3,0.7-2.4,1.7-3.2,2.9c-0.8,1.2-1.3,2.5-1.6,4c-0.2,1.4-0.4,2.9-0.4,4.3V553h-16.5v-24.6
		c0-1.4,0-2.7-0.1-4c-0.1-1.4-0.4-2.7-0.9-3.9c-0.6-1.3-1.6-2.3-2.9-3c-1.1-0.6-2.4-0.8-3.7-0.8c-0.5,0-0.9,0-1.3,0.1
		c-1.2,0.3-2.4,0.8-3.5,1.6c-1.2,0.8-2.1,2-2.9,3.4c-0.8,1.5-1.2,3.5-1.2,5.8V553h-16.2v-43.7h15.4v6.1h1h0.4l0.2-0.3
		c1.8-2.2,4-4,6.6-5.2c2.6-1.2,5.5-1.8,8.9-1.9c3.2,0,6.2,0.6,8.8,1.6c2.6,1.1,4.5,2.8,5.9,5.5l0.6,1.1l0.8-1
		c1.5-1.9,3.5-3.6,6.2-5.1c2.6-1.4,5.6-2.2,9.2-2.2c2.7,0,5.3,0.3,7.6,0.9c2.3,0.6,4.2,1.5,5.9,2.7c1.6,1.2,2.8,2.8,3.7,4.7
		c0.9,1.9,1.4,4.3,1.4,7.2V553"/>
	<path class="st1" d="M542.8,516.3c0.2,0,0.3,0,0.5,0c1,0,1.6,0.1,2.2,0.2c0.6,0.1,0.9,0.4,1.5,0.6c1.3,0.6,2.3,1.5,3,2.7
		c0.7,1.1,1.1,2.4,1.2,3.8c0.1,1.4,0.2,2.8,0.2,4.4V553h16.1v-29.5c0-2.8-0.5-5.2-1.4-7.2c-0.9-2-2.2-3.5-3.8-4.7
		c-1.6-1.2-3.5-2.1-5.9-2.7c-2.3-0.6-4.8-0.9-7.6-0.9c-3.6,0-6.6,0.7-9.2,2.2c-2.6,1.5-4.7,3.2-6.2,5.1l-0.8,1l-0.6-1.1
		c-1.4-2.7-3.3-4.4-5.9-5.5c-2.6-1.1-5.6-1.6-8.8-1.6c-3.4,0-6.3,0.6-8.9,1.9c-2.6,1.2-4.8,3-6.6,5.2l-0.2,0.3h-0.4h-1v-6.1h-15.4
		V553h16.2v-25.5c0-2.3,0.4-4.2,1.2-5.8c0.8-1.5,1.8-2.6,2.9-3.4c1.1-0.8,2.3-1.3,3.5-1.6c0.4-0.1,0.8-0.1,1.3-0.1
		c1.2,0,2.6,0.2,3.7,0.8c1.3,0.7,2.3,1.8,2.9,3c0.5,1.2,0.9,2.5,0.9,3.9c0.1,1.3,0.1,2.7,0.1,4V553h16.5v-24.5
		c0-1.4,0.1-2.9,0.4-4.3c0.3-1.5,0.8-2.8,1.5-4c0.8-1.2,1.9-2.1,3.2-2.9c0.4-0.2,0.7-0.4,1-0.6c0.3-0.2,0.7-0.3,1.1-0.4
		C542.1,516.3,542.4,516.3,542.8,516.3 M569.2,554.6H550v-26.5c0-1.5-0.1-2.9-0.2-4.2c-0.1-1.3-0.5-2.3-1-3.2
		c-0.5-0.9-1.3-1.5-2.4-2.1c-0.6-0.3-0.9-0.4-1.3-0.5c-0.3-0.1-0.8-0.1-1.9-0.2c-0.2,0-0.3,0-0.5,0c-0.4,0-0.6,0-0.8,0
		c-0.2,0-0.3,0.1-0.4,0.1c-0.2,0.1-0.5,0.3-1.1,0.7c-1.2,0.7-2.1,1.4-2.7,2.4c-0.6,1-1.1,2.1-1.3,3.4c-0.2,1.3-0.4,2.7-0.4,4v26
		h-19.6v-26.2c0-1.3,0-2.6-0.1-3.9c-0.1-1.2-0.3-2.3-0.8-3.3c-0.4-1-1.2-1.7-2.2-2.3c-0.6-0.4-1.9-0.6-2.8-0.6h-0.1
		c-0.4,0-0.7,0-1,0.1c-1,0.2-2,0.7-3,1.4c-0.9,0.6-1.8,1.6-2.5,2.9c-0.7,1.2-1,2.9-1,5v27.1h-19.4v-46.9h17.8v0.8v-0.8h0.8v5.1
		c1.7-1.8,3.7-3.2,6-4.3c2.8-1.3,6-2,9.6-2c3.4,0,6.6,0.6,9.4,1.7c2.6,1,4.6,2.8,6.1,5.2c1.5-1.7,3.5-3.2,5.9-4.6
		c2.8-1.6,6.2-2.4,9.9-2.4c2.8,0,5.5,0.3,8,0.9c2.5,0.6,4.6,1.6,6.4,2.9c1.8,1.4,3.2,3.2,4.2,5.3c1,2.2,1.5,4.8,1.5,7.8V554.6"/>
	<polygon class="st1" points="87.9,547.6 70.7,507.4 82.6,507.4 94.6,539 95.9,539 96.9,539 108.5,507.4 120,507.4 105.3,542.1 	"/>
	<polygon class="st1" points="85.2,549.5 65.9,504.2 84.8,504.2 95.7,533.1 106.3,504.2 124.8,504.2 109.1,541 109.2,540.8 
		105.3,542.1 120,507.4 108.5,507.4 97,539 95.9,539 94.6,539 82.6,507.4 70.7,507.4 87.8,547.6 85.7,548.3 	"/>
</g>
<g>
	<polygon class="st1" points="97,569.2 81.7,569.2 88.1,550.8 104.4,545.7 	"/>
	<path class="st1" d="M104.4,545.7l-16.2,5.2l-6.4,18.4H97L104.4,545.7z M98.1,570.8L98.1,570.8v-1.6V570.8 M99.3,572.4h-22l8-22.8
		l0.4-1.2l2.2-0.7l17.4-5.5l3.9-1.3l-0.1,0.2l-9.5,30.2L99.3,572.4"/>
</g>
<g>
	<path class="st1" d="M201.2,552c-2.9,0-5.7-0.3-8.5-0.8c-2.7-0.5-5.1-1.4-7.1-2.5c-2-1.1-3.7-2.6-5-4.5c-1-1.4-1.6-3.1-1.9-5.2H189
		c0.2,1,0.5,2,1.1,2.8l1.3-0.9l-1.3,0.9c0.8,1.2,1.7,2.1,2.9,2.9c1.2,0.7,2.5,1.2,3.9,1.6c1.4,0.3,2.9,0.5,4.4,0.5
		c1.1,0,2.2-0.1,3.4-0.3c1.2-0.2,2.4-0.6,3.4-1.1h0c1.1-0.5,2-1.3,2.8-2.2c0.9-1.1,1.2-2.4,1.2-3.8c0-0.7-0.1-1.3-0.4-1.9
		c-0.4-0.9-1.1-1.7-1.9-2.3c-0.8-0.6-1.9-1.1-3-1.5c-2.9-1-6.9-1.9-12-2.9v0c-2-0.4-4-0.9-5.9-1.4c-1.8-0.5-3.5-1.2-4.9-2.1l0,0l0,0
		c-1.4-0.8-2.4-1.8-3.2-3c-0.7-1.1-1.1-2.5-1.1-4.3c0-2.8,0.6-4.9,1.7-6.4c1.1-1.7,2.6-3,4.5-4c2-1,4.2-1.7,6.7-2.2
		c2.6-0.4,5.2-0.6,7.9-0.6c2.7,0,5.3,0.2,7.8,0.7c2.5,0.4,4.6,1.2,6.5,2.2c1.9,1,3.4,2.4,4.6,4c0.9,1.2,1.5,2.7,1.9,4.6h-10.2
		c-0.2-0.8-0.5-1.6-0.9-2.3c-0.7-1.1-1.7-1.9-2.8-2.5c-2.1-1-4.5-1.4-7.2-1.4c-0.9,0-1.8,0-2.7,0.1h0h0c-1.1,0.1-2,0.3-3,0.7
		c-1,0.4-1.8,0.9-2.5,1.7c-0.4,0.4-0.7,1-0.9,1.6c-0.2,0.6-0.3,1.2-0.3,1.8c0,0.8,0.2,1.6,0.5,2.3c0.4,0.7,0.9,1.3,1.5,1.8
		c1.1,0.9,2.5,1.5,4.1,2c1.6,0.5,3.3,0.9,5.3,1.2c1.9,0.4,3.9,0.7,5.8,1.2h0c2,0.4,4,0.9,5.9,1.5c1.8,0.6,3.4,1.3,4.8,2.2
		c1.3,0.9,2.4,1.9,3.2,3.2c0.7,1.1,1.1,2.6,1.1,4.6c0,2.8-0.6,5-1.8,6.8c-1.2,1.9-2.8,3.3-4.8,4.5c-2,1.1-4.3,2-7,2.4
		C206.8,551.7,204.1,552,201.2,552"/>
	<path class="st1" d="M201.2,555.1c-3.1,0-6.1-0.3-9-0.8c-3-0.6-5.7-1.5-8.1-2.9c-2.4-1.4-4.4-3.2-6-5.4c-1.6-2.3-2.5-5.2-2.6-8.6
		l-0.1-1.6H192v1.6c0,1.1,0.2,2,0.7,2.7l-1.3,0.9l-1.3,0.9c-0.5-0.8-0.9-1.8-1.1-2.8h-10.2c0.3,2.1,0.9,3.8,1.9,5.2
		c1.3,1.9,2.9,3.3,5,4.5c2,1.1,4.4,2,7.1,2.5c2.8,0.5,5.6,0.8,8.5,0.8c2.8,0,5.6-0.2,8.3-0.7c2.7-0.5,5-1.3,7-2.4
		c2-1.1,3.6-2.6,4.8-4.5c1.2-1.7,1.8-4,1.8-6.8c0-1.9-0.4-3.4-1.1-4.6c-0.8-1.3-1.9-2.3-3.2-3.2c-1.4-0.9-3-1.6-4.8-2.2
		c-1.9-0.6-3.9-1.1-5.9-1.5h0c-2-0.4-3.9-0.8-5.8-1.1c-2-0.4-3.7-0.8-5.3-1.3c-1.6-0.5-3-1.1-4.1-2c-0.6-0.5-1.1-1.1-1.5-1.8
		c-0.4-0.7-0.5-1.5-0.5-2.2c0-0.6,0.1-1.2,0.3-1.8c0.2-0.6,0.5-1.1,0.9-1.6c0.7-0.7,1.6-1.3,2.5-1.7c0.9-0.4,1.9-0.6,3-0.7h0h0
		c1-0.1,1.9-0.1,2.7-0.1c2.7,0,5.1,0.5,7.2,1.4c1.2,0.5,2.2,1.4,2.8,2.5c0.4,0.7,0.7,1.5,0.9,2.3h10.2c-0.4-1.8-1-3.4-1.9-4.6
		c-1.2-1.7-2.7-3-4.6-4.1c-1.9-1-4.1-1.8-6.5-2.2c-2.5-0.5-5.1-0.7-7.8-0.7c-2.7,0-5.3,0.2-7.9,0.6c-2.5,0.4-4.7,1.2-6.7,2.2
		c-1.9,1-3.4,2.3-4.5,4c-1.1,1.6-1.7,3.7-1.7,6.4c0,1.8,0.4,3.2,1.1,4.3c0.8,1.2,1.8,2.2,3.2,3l0,0l0,0c1.4,0.8,3,1.5,4.9,2.1
		c1.9,0.5,3.9,1,5.9,1.4c5.1,1,9.1,1.9,12,2.9c1.2,0.4,2.2,0.9,3,1.5c0.8,0.6,1.5,1.4,1.9,2.3c0.3,0.6,0.4,1.3,0.4,1.9
		c0,1.4-0.4,2.7-1.2,3.8c-0.7,0.9-1.7,1.7-2.8,2.2h0c-1,0.5-2.2,0.9-3.4,1.1c-1.2,0.2-2.3,0.3-3.4,0.3c-1.5,0-3-0.2-4.4-0.5
		c-1.4-0.3-2.8-0.9-3.9-1.6c-1.2-0.7-2.2-1.7-2.9-2.9l1.3-0.9l1.3-0.9c0.5,0.8,1.1,1.4,2,1.9c0.8,0.5,1.8,0.9,3,1.2
		c1.2,0.3,2.4,0.4,3.7,0.4c0.9,0,1.8-0.1,2.8-0.3h0c1-0.2,1.8-0.5,2.6-0.8v0c0.7-0.4,1.3-0.8,1.7-1.4c0.3-0.4,0.5-1,0.6-1.8
		c0-0.3-0.1-0.5-0.1-0.7c-0.1-0.2-0.2-0.4-0.5-0.7c-0.5-0.5-1.3-1-2.6-1.4c-2.7-0.9-6.6-1.9-11.6-2.8l0,0c-2.1-0.4-4.1-0.9-6.2-1.5
		c-2.1-0.6-3.9-1.4-5.6-2.4l0,0l0,0c-1.7-1-3.1-2.4-4.2-4c-1.1-1.7-1.7-3.7-1.6-6c0-3.2,0.7-6,2.2-8.2c1.4-2.1,3.4-3.8,5.7-5
		c2.3-1.2,4.8-2,7.6-2.5c2.7-0.5,5.5-0.7,8.4-0.7c2.9,0,5.7,0.2,8.4,0.7c2.8,0.5,5.3,1.4,7.5,2.6c2.2,1.2,4.1,2.9,5.6,4.9
		c1.6,2.1,2.4,4.8,2.7,7.9l0.2,1.7h-16.6l-0.1-1.4c-0.1-1-0.3-1.8-0.7-2.4c-0.4-0.6-0.8-1-1.5-1.3c-1.6-0.7-3.6-1.1-5.9-1.1
		c-0.7,0-1.6,0-2.4,0.1h0c-0.8,0.1-1.5,0.2-2.1,0.5c-0.6,0.2-1,0.5-1.4,0.9c-0.1,0.1-0.2,0.3-0.3,0.4c-0.1,0.2-0.1,0.4-0.1,0.8
		c0,0.4,0.1,0.6,0.2,0.8c0.1,0.2,0.3,0.5,0.6,0.7c0.7,0.6,1.8,1.1,3.1,1.5c1.4,0.4,3.1,0.8,5,1.2c1.9,0.4,3.9,0.8,5.9,1.2l0,0
		c2.1,0.4,4.2,0.9,6.2,1.6c2.1,0.6,4,1.5,5.6,2.6c1.7,1.1,3.1,2.5,4.2,4.1c1.1,1.8,1.6,3.9,1.6,6.2c0,3.3-0.7,6.2-2.3,8.5
		c-1.5,2.3-3.5,4.1-5.9,5.5c-2.4,1.4-5,2.3-8,2.8C207.2,554.9,204.2,555.1,201.2,555.1"/>
	<path class="st1" d="M655.5,552.1c-2.9,0-5.7-0.3-8.5-0.8c-2.7-0.5-5.1-1.3-7.1-2.5c-2-1.1-3.6-2.6-4.9-4.5c-1-1.4-1.6-3.1-1.9-5.2
		h10.2c0.2,1,0.5,1.9,1.1,2.8l1.3-0.9l-1.3,0.9c0.8,1.2,1.7,2.1,2.9,2.9c1.2,0.7,2.5,1.2,3.9,1.6c1.4,0.3,2.9,0.5,4.4,0.5
		c1.1,0,2.2-0.1,3.4-0.3c1.2-0.2,2.4-0.6,3.4-1.1c1.1-0.5,2-1.3,2.8-2.2c0.9-1.1,1.3-2.4,1.2-3.8c0-0.7-0.1-1.3-0.4-2
		c-0.4-0.9-1.1-1.7-1.9-2.3c-0.8-0.6-1.9-1.1-3-1.5c-2.9-1-6.9-2-12-2.9v0c-2-0.4-4-0.9-5.9-1.4c-1.8-0.5-3.5-1.2-4.9-2.1
		c-1.4-0.8-2.4-1.8-3.2-3c-0.7-1.1-1.1-2.5-1.1-4.3c0-2.7,0.6-4.9,1.7-6.4c1.1-1.7,2.6-3,4.5-4c2-1,4.2-1.8,6.7-2.2
		c2.6-0.4,5.2-0.6,7.9-0.6c2.7,0,5.3,0.2,7.8,0.7c2.5,0.4,4.6,1.2,6.5,2.2c1.9,1,3.4,2.4,4.6,4c0.9,1.2,1.5,2.8,1.9,4.6h-10.2
		c-0.2-0.8-0.5-1.6-0.9-2.3c-0.7-1.1-1.7-1.9-2.9-2.5c-2.1-1-4.5-1.4-7.1-1.4h-0.1c-0.9,0-1.8,0-2.7,0.1c-1.1,0.1-2,0.3-3,0.7
		c-1,0.4-1.8,0.9-2.5,1.7c-0.4,0.4-0.7,1-0.9,1.6c-0.2,0.6-0.3,1.2-0.3,1.8c0,0.8,0.2,1.6,0.5,2.3c0.3,0.7,0.9,1.3,1.5,1.8
		c1.1,0.9,2.5,1.5,4.1,2c1.6,0.5,3.3,0.9,5.3,1.2c1.9,0.4,3.9,0.7,5.8,1.2h0c2,0.4,4,0.9,5.9,1.5c1.9,0.6,3.5,1.3,4.8,2.2
		c1.4,0.9,2.4,1.9,3.2,3.2c0.7,1.1,1.1,2.6,1.1,4.6c0,2.8-0.6,5-1.8,6.8c-1.2,1.9-2.8,3.3-4.8,4.4c-2,1.1-4.3,2-7,2.5
		C661.1,551.9,658.4,552.1,655.5,552.1"/>
	<path class="st1" d="M655.5,555.3c-3.1,0-6.1-0.3-9-0.8c-3-0.6-5.7-1.5-8.1-2.9c-2.4-1.4-4.4-3.2-6-5.4c-1.6-2.3-2.5-5.2-2.6-8.5
		l-0.1-1.6h16.6v1.6c0,1.1,0.2,2,0.7,2.7l-1.3,0.9l-1.3,0.9c-0.5-0.8-0.9-1.8-1.1-2.8h-10.2c0.3,2.1,0.9,3.8,1.9,5.2
		c1.3,1.9,2.9,3.3,4.9,4.5c2.1,1.1,4.4,2,7.1,2.5c2.8,0.5,5.6,0.8,8.5,0.8c2.8,0,5.6-0.2,8.3-0.7c2.7-0.5,5-1.3,7-2.5
		c2-1.1,3.6-2.6,4.8-4.4c1.2-1.8,1.8-4,1.8-6.8c0-1.9-0.4-3.4-1.1-4.6c-0.8-1.3-1.9-2.3-3.2-3.2c-1.4-0.9-3-1.6-4.8-2.2
		c-1.9-0.6-3.9-1.1-5.9-1.5h0c-2-0.4-3.9-0.8-5.8-1.1c-2-0.4-3.7-0.8-5.3-1.3c-1.6-0.5-3-1.1-4.1-2c-0.6-0.5-1.1-1.1-1.5-1.8
		c-0.4-0.7-0.5-1.5-0.5-2.2c0-0.6,0.1-1.2,0.3-1.8c0.2-0.6,0.5-1.1,0.9-1.6c0.7-0.7,1.6-1.3,2.5-1.7c0.9-0.4,1.9-0.6,3-0.7
		c1-0.1,1.9-0.1,2.7-0.1h0.1c2.7,0,5.1,0.5,7.1,1.4c1.2,0.5,2.2,1.4,2.9,2.5c0.4,0.7,0.7,1.5,0.9,2.3h10.2c-0.4-1.8-1-3.3-1.9-4.6
		c-1.2-1.7-2.7-3-4.6-4c-1.9-1-4-1.8-6.5-2.2c-2.5-0.5-5.1-0.7-7.8-0.7c-2.7,0-5.3,0.2-7.9,0.6c-2.5,0.4-4.7,1.1-6.7,2.2
		c-1.9,1-3.4,2.3-4.5,4c-1.1,1.6-1.7,3.7-1.7,6.4c0,1.8,0.4,3.2,1.1,4.3c0.8,1.2,1.8,2.2,3.2,3c1.4,0.8,3,1.5,4.9,2.1
		c1.9,0.5,3.9,1,5.9,1.4c5.1,1,9.1,1.9,12,2.9c1.2,0.4,2.2,0.9,3,1.5c0.8,0.6,1.5,1.4,1.9,2.3c0.3,0.6,0.4,1.3,0.4,2
		c0,1.4-0.4,2.7-1.2,3.8c-0.7,0.9-1.7,1.7-2.8,2.2c-1,0.5-2.2,0.9-3.4,1.1c-1.2,0.2-2.3,0.3-3.4,0.3c-1.5,0-3-0.2-4.4-0.5
		c-1.4-0.3-2.8-0.9-3.9-1.6c-1.2-0.7-2.2-1.7-2.9-2.9l1.3-0.9l1.3-0.9c0.5,0.8,1.1,1.4,2,1.9c0.8,0.5,1.8,0.9,3,1.2
		c1.2,0.3,2.4,0.4,3.7,0.4c0.9,0,1.8-0.1,2.8-0.3c1-0.2,1.8-0.5,2.6-0.9c0.7-0.4,1.3-0.8,1.7-1.4c0.4-0.4,0.6-1,0.6-1.8
		c0-0.3-0.1-0.5-0.1-0.7c-0.1-0.2-0.2-0.4-0.5-0.7c-0.5-0.5-1.3-1-2.6-1.4c-2.7-0.9-6.6-1.9-11.6-2.8h0c-2.1-0.4-4.1-0.9-6.2-1.5
		c-2.1-0.6-3.9-1.4-5.6-2.4c-1.7-1-3.1-2.4-4.2-4c-1.1-1.7-1.7-3.7-1.6-6c0-3.2,0.7-6,2.2-8.2c1.4-2.1,3.4-3.8,5.7-5
		c2.3-1.2,4.8-2,7.6-2.5c2.7-0.5,5.5-0.7,8.4-0.7c2.9,0,5.7,0.2,8.4,0.7c2.8,0.5,5.3,1.4,7.5,2.6c2.2,1.2,4.1,2.9,5.6,5
		c1.5,2.1,2.4,4.8,2.7,7.9l0.2,1.7h-16.6l-0.1-1.5c-0.1-1-0.3-1.8-0.7-2.4c-0.4-0.6-0.8-1-1.5-1.3c-1.6-0.7-3.6-1.1-5.9-1.1
		c-0.7,0-1.6,0-2.4,0.1c-0.8,0.1-1.5,0.2-2.1,0.5c-0.6,0.2-1,0.5-1.4,0.9c-0.1,0.1-0.2,0.2-0.3,0.4c-0.1,0.2-0.1,0.4-0.1,0.8
		c0,0.4,0.1,0.6,0.2,0.8c0.1,0.2,0.3,0.5,0.6,0.7c0.7,0.6,1.8,1.1,3.1,1.5c1.4,0.4,3.1,0.8,5,1.2c1.9,0.4,3.9,0.8,5.9,1.2
		c2.1,0.4,4.1,0.9,6.2,1.6c2.1,0.6,4,1.5,5.6,2.5c1.7,1.1,3.1,2.5,4.2,4.1c1.1,1.8,1.6,3.9,1.6,6.3c0,3.3-0.7,6.1-2.3,8.5
		c-1.5,2.3-3.5,4.1-5.9,5.5c-2.4,1.4-5,2.3-8,2.8C661.5,555,658.5,555.3,655.5,555.3"/>
	<path class="st1" d="M292.6,551.9L292.6,551.9c-0.4-0.2-0.8-0.4-1.2-0.7c-0.4-0.3-0.8-0.6-1.1-0.9c-0.3-0.3-0.6-0.6-0.9-1
		c0,0,0-0.1-0.1-0.1h3c0.1,0.1,0.2,0.1,0.3,0.2c0,0,0,0,0,0V551.9 M313,554.1l-1.9,0l-1.9,0l-1.9,0l-1.9,0h-0.2h-0.2h-0.1h-0.1
		c-0.6,0-1.2,0-1.8,0c-0.6,0-1.1-0.1-1.7-0.1c-0.6-0.1-1.1-0.1-1.6-0.2c-0.5-0.1-1-0.1-1.5-0.2c-0.5-0.1-1-0.2-1.5-0.3
		c-0.5-0.1-1-0.2-1.5-0.4c-0.5-0.1-0.9-0.3-1.4-0.5c-0.4-0.2-0.9-0.4-1.3-0.6h9.9c0.2,0,0.4,0,0.6,0c0.6,0,1.1,0,1.7,0h0.1h0.1h0.2
		h0.2l1.9,0l1.9,0l1.9,0l1.9,0h0l0.1,0h0.3h0.4c0.1,0,0.3,0,0.5,0h0.3h0.3v-0.3l0-0.3v-1.6c0-0.6,0-1.3,0-1.9c0-0.7,0-1.3,0-1.9
		c0-0.6,0-1.2,0-1.6v-0.3v-0.3h-0.3h-0.1v-1.2h-11h-0.1c0,0-0.1-0.1-0.1-0.1c-0.3-0.2-0.5-0.5-0.7-0.8v-16.3v-9.3h0.2h4h4.4h3.3h0.3
		h0.3V516h0.9v-4.7v-4.7h-13.3v-3.7h0.6v-4.4v-4.4h-1.7v-0.4v-0.6v-0.6l-0.4,0.4l-0.4,0.4c-0.2,0.2-0.6,0.5-0.9,0.8h-1.7v1.4
		c0,0,0,0,0,0c-0.1,0.1-0.1,0.1-0.2,0.2h-0.9v0.8c-0.2,0.2-0.4,0.3-0.6,0.5h-1.5l-0.9,1.5h-1.9v1.2v0.8c-0.3,0.3-0.6,0.5-0.9,0.8
		c-0.1,0.1-0.2,0.2-0.4,0.3H289v4.9h-8.7v4.7v4.7h0.2v0.1h0.3h0.3h2.3h2.9h2.5h0.4v9.3v23.4c-0.1-0.2-0.3-0.4-0.4-0.6
		c-0.2-0.4-0.5-0.8-0.6-1.3c-0.2-0.5-0.3-0.9-0.5-1.5c-0.1-0.5-0.2-1.1-0.3-1.6c-0.1-0.6-0.1-1.2-0.1-1.8v-3.2v-7.4v-7.9v-4.8v-0.3
		v-0.3h-0.3h-0.3h-2.3h-2.9h-2.5h-0.5v-3v-3.5v-3.5v-3h0.6h2.5h2.9h2.3h0.3h0.3V505v-0.3c0-0.3,0-0.6,0-0.9c0-0.3,0-0.7,0-1
		c0-0.3,0-0.6,0-0.8v-0.1l1-0.9l2.4-2l12.8-8.8l0.6,0c-0.1,0.3-0.3,0.8-0.3,1.4v4.6v4.8v3.7v0.3v0.3h0.3h0.3h3.1h4.5h4.1h1.2v3v3.5
		v3.5v3h-1.2h-4.1h-4.5h-3.1h-0.3h-0.3v0.3v0.3v4.1v6.4v5.9v2.6c0,0.4,0,0.7,0.1,1c0.1,0.3,0.1,0.6,0.2,0.9c0.1,0.3,0.2,0.5,0.3,0.8
		c0.1,0.2,0.3,0.4,0.5,0.6c0.1,0.1,0.3,0.2,0.5,0.3c0.2,0.1,0.4,0.2,0.7,0.3c0.3,0.1,0.6,0.1,1,0.1c0.4,0,0.9,0.1,1.4,0.1h0.2h0.2
		h0.4l0.4,0h0.4h0.4l0.8,0h0.8l0.8,0h0.8h0.9l0.9,0h0.6l0.6,0l0,2.7l0,2.7l0,3l0,3v0.4v0.4v0.1v0.1H316l-0.8,0l-1.1,0L313,554.1"/>
	<path class="st1" d="M301.6,494.2h-0.9h-0.9c0.4-0.3,0.7-0.6,0.9-0.8l0.4-0.4l0.4-0.4v0.6v0.6V494.2 M298.1,495.8h-0.2
		c0.1-0.1,0.1-0.1,0.2-0.2c0,0,0,0,0,0V495.8 M296.9,497h-0.6c0.2-0.2,0.4-0.3,0.6-0.5V497 M292.4,501.7h-1.5
		c0.1-0.1,0.2-0.2,0.4-0.3c0.3-0.2,0.6-0.5,0.9-0.8v0.4h0.5l-0.2,0.4V501.7 M289,516.1h-0.4h-2.5h-2.9h-2.3h-0.3h-0.3V516L289,516.1
		L289,516.1 M315,516.1h-0.3h-0.3h-3.3h-4.4h-4h-0.2V516L315,516.1L315,516.1 M305.4,540.2L305.4,540.2L305.4,540.2L305.4,540.2
		 M303.4,542.6h-0.8v-0.9C302.8,542,303.1,542.3,303.4,542.6C303.4,542.6,303.4,542.6,303.4,542.6 M292.6,549.5
		C292.6,549.5,292.6,549.5,292.6,549.5c-0.1-0.1-0.2-0.1-0.3-0.2h0.3V549.5 M313,552L313,552l-1.9,0l-1.9,0h-1.9l-1.9,0h-0.2h-0.2
		h-0.1h-0.1c-0.6,0-1.1,0-1.7,0c-0.2,0-0.4,0-0.6,0h1.1h11v-4.6v-3.5h0.1h0.3v0.3v0.3c0,0.5,0,1,0,1.6s0,1.3,0,1.9
		c0,0.7,0,1.3,0,1.9v1.6l0,0.3v0.3h-0.3h-0.3c-0.2,0-0.3,0-0.5,0h-0.4h-0.3L313,552 M292.6,551.9c0.4,0.2,0.8,0.4,1.3,0.6
		c0.4,0.2,0.9,0.3,1.4,0.5c0.5,0.1,1,0.3,1.5,0.4c0.5,0.1,1,0.2,1.5,0.3c0.5,0.1,1,0.1,1.5,0.2c0.5,0.1,1,0.1,1.6,0.2
		c0.5,0,1.1,0.1,1.7,0.1c0.6,0,1.2,0,1.8,0h0.1h0.1h0.2h0.2l1.9,0l1.9,0l1.9,0h1.9l1.1,0l1.1,0l0.8,0l0.8,0v-0.1v-0.1v-0.4V553l0-3
		l0-3l0-2.7l0-2.7l-0.6,0h-0.6h-0.9h-0.9H313l-0.8,0h-0.8l-0.8,0H310h-0.4l-0.4,0h-0.4h-0.2h-0.2c-0.6,0-1,0-1.4,0
		c-0.4,0-0.7-0.1-1-0.1c-0.3-0.1-0.6-0.2-0.7-0.3c-0.2-0.1-0.4-0.2-0.5-0.3c-0.2-0.2-0.3-0.4-0.5-0.6c-0.1-0.2-0.2-0.5-0.3-0.8
		c-0.1-0.3-0.1-0.6-0.2-0.9c0-0.3-0.1-0.7-0.1-1.1v-2.6v-5.9v-6.4v-4.1v-0.3v-0.3h0.3h0.3h3.1h4.5h4.1h1.2v-3v-3.5v-3.5v-3h-1.2
		h-4.1h-4.5h-3.1h-0.3h-0.3V505v-0.3v-3.7v-4.8v-4.6c0-0.6,0.1-1.1,0.3-1.5l-0.6,0l-12.8,8.8l-2.4,2l-1,0.9v0.1c0,0.2,0,0.5,0,0.8
		c0,0.3,0,0.6,0,1c0,0.3,0,0.6,0,0.9v0.3v0.3h-0.3h-0.3h-2.3h-2.9h-2.5h-0.6v3v3.5v3.5v3h0.5h2.5h2.9h2.3h0.3h0.3v0.3v0.3v4.8v7.9
		v7.4v3.2c0,0.6,0,1.3,0.1,1.8c0.1,0.6,0.2,1.1,0.3,1.6c0.1,0.5,0.3,1,0.5,1.5c0.2,0.5,0.4,0.9,0.6,1.3c0.1,0.2,0.3,0.4,0.4,0.6v0.4
		h0.3c0,0,0,0,0.1,0.1c0.3,0.4,0.6,0.7,0.9,1c0.3,0.3,0.7,0.6,1.1,0.9C291.7,551.4,292.1,551.7,292.6,551.9 M313,555.2l-1.9,0
		l-1.9,0l-1.9,0l-1.9,0h-0.2h-0.2h-0.1h-0.1c-0.6,0-1.2,0-1.8,0c-0.6,0-1.2-0.1-1.7-0.1c-0.6,0-1.1-0.1-1.6-0.2
		c-0.5-0.1-1-0.1-1.5-0.2c-0.6-0.1-1.1-0.2-1.6-0.3c-0.5-0.1-1-0.2-1.5-0.4c-0.5-0.1-1-0.3-1.4-0.5c-0.5-0.2-0.9-0.4-1.4-0.6
		c-0.5-0.2-0.9-0.5-1.3-0.8c-0.4-0.3-0.8-0.6-1.2-0.9c-0.4-0.3-0.7-0.7-1.1-1.1c-0.3-0.4-0.6-0.8-0.9-1.2c-0.3-0.4-0.5-0.9-0.7-1.4
		c-0.2-0.5-0.4-1-0.5-1.6c-0.1-0.6-0.2-1.2-0.3-1.8c-0.1-0.6-0.1-1.3-0.1-1.9v-3.2v-7.4v-7.9v-4.3h-1.7h-2.9h-2.5h-1.1h-0.3h-0.3
		v-3.8v-3.8V508v-3.8h0.3h0.3h1.1h2.5h2.9h1.8c0-0.1,0-0.3,0-0.4c0-0.2,0-1.1,0-2l0-3.7l18.7-9.3l0,0.7v0.3v2v4.6v4.8v3.1h2.6h4.5
		h4.1h1.8h0.3h0.3v3.8v3.8v3.8v3.8h-0.3h-0.3h-1.8h-4.1h-4.5h-2.6v3.6v6.4v5.9v2.6c0,0.3,0,0.6,0.1,0.9c0,0.3,0.1,0.5,0.1,0.7
		c0.1,0.2,0.1,0.4,0.2,0.5c0.1,0.1,0.2,0.3,0.3,0.4h0c0.1,0,0.1,0.1,0.2,0.1c0.1,0.1,0.3,0.1,0.5,0.2c0.2,0.1,0.5,0.1,0.9,0.1
		c0.4,0,0.8,0.1,1.3,0.1h0.1h0.2h0.5l0.4,0h0.4l0.4,0h0.8h0.8l0.9,0h0.8l0.9,0h0.9l1.2,0h1.2l0,3.2v3.2l0,3l0,3v0.4v0.4l0,0.6v0.6
		l-1.4,0l-1.4,0l-1.1,0L313,555.2"/>
	<path class="st1" d="M289,516h-8.6h-0.2v-4.7v-4.7h8.7V516z M315.9,516H315h-12.4v-9.4h13.3v4.7V516"/>
	<polygon class="st1" points="292.6,549.3 292.3,549.3 289.3,549.3 289,549.3 289,548.9 289,525.5 289,516.1 289,516 289,506.6 
		289,501.7 290.8,501.7 292.4,501.7 292.4,505.7 294.9,505.7 297.5,505.7 297.5,504.5 299.5,504.5 302.1,504.5 302.1,502.9 
		302.6,502.9 302.6,506.6 302.6,516 302.6,516.1 302.6,525.5 302.6,541.7 302.6,542.6 292.6,542.6 292.6,547.3 	"/>
	<polygon class="st1" points="314.5,551.9 303.5,551.9 302.4,551.9 292.6,551.9 292.6,549.5 292.6,549.3 292.6,547.3 292.6,542.6 
		302.6,542.6 303.4,542.6 303.5,542.6 314.5,542.6 314.5,543.8 314.5,547.3 	"/>
	<path class="st1" d="M298.1,498.5h-0.6V497h-0.6v-0.5v-0.8h0.9h0.2V498.5L298.1,498.5z M302.1,504.5h-2.6h-2v-3.1V501h0.6v1.9h2.6
		h1.5V504.5"/>
	<path class="st1" d="M292.6,501h-0.5v-0.4v-0.8v-1.2h1.9L292.6,501z M298.1,501h-0.6v-2.4h0.6V501z"/>
	<polygon class="st1" points="297.5,505.7 294.9,505.7 292.4,505.7 292.4,501.7 292.4,501.4 292.6,501 294,498.5 294.9,497 
		296.4,497 297,497 297.5,497 297.5,498.5 297.5,501 297.5,501.4 297.5,504.5 	"/>
	<polygon class="st1" points="303.2,502.9 302.6,502.9 302.1,502.9 300.6,502.9 298.1,502.9 298.1,501 298.1,498.5 298.1,498.5 
		298.1,495.8 298.1,495.6 298.1,494.2 299.8,494.2 300.6,494.2 301.6,494.2 303.2,494.2 303.2,498.5 	"/>
	<path class="st1" d="M377.9,537.6l0.1-0.1L377.9,537.6L377.9,537.6 M412.2,527.9L412.2,527.9l-0.4-3c-0.3-2.6-0.8-4.6-1.5-6.3
		c-0.5-1.3-1.2-2.4-1.9-3.4l0,0l-0.7-0.8c-0.1-0.1-0.1-0.1-0.2-0.2l-0.2-0.2l-0.4-0.4l0,0c-1-0.8-2.1-1.4-3.3-1.8
		c-1.6-0.5-3.3-0.8-5.1-0.8c-2.4,0-4.6,0.4-6.5,1.3c-1.7,0.8-3.1,1.9-4.3,3.2l-0.7,0.9h0c-0.7,1-1.3,2.1-1.6,3.3
		c-0.2,0.5-0.3,1-0.4,1.7l-0.1,0.5c0,0.1,0,0.2,0,0.3l0,0.2h0c-0.1,0.7-0.1,1.6-0.2,2.6l-0.1,2.1l0.5,0v0h0v0.5H412.2 M399.1,550.2
		c-3.6,0-6.8-0.5-9.6-1.6c-2.8-1.1-5.1-2.5-7-4.4c-1.9-1.9-3.4-4.1-4.4-6.8c-1.1-2.6-1.6-5.6-1.6-8.8c0-3.1,0.6-6,1.6-8.6
		c1-2.5,2.4-4.7,4.3-6.5l0.3-0.3c0.1-0.1,0.2-0.1,0.2-0.2h0.1v-0.1c1.9-1.8,4.2-3.2,6.8-4.3c2.8-1.1,5.8-1.7,9.3-1.7
		c3.9,0,7.2,0.7,9.9,2v0c2.8,1.4,5,3.1,6.8,5.4c1.8,2.2,3,4.8,3.9,7.7l0,0.1c0,0.1,0.1,0.2,0.1,0.3l0.1,0.2c0.5,2.1,0.9,3.8,0.9,5.8
		l-35.8,0l0.1,2.8c0.1,2.2,0.4,4.3,1,6.2l0,0c0.5,1.7,1.4,3.4,2.6,4.7l0,0l0.4,0.4l0.4,0.4l0.4,0.4l0-0.1c1.1,0.9,2.4,1.5,3.8,1.9
		c1.8,0.6,3.7,0.8,5.9,0.8c1.4,0,2.6-0.1,3.7-0.4v0l0.3-0.1c0.1,0,0.2-0.1,0.3-0.1l0.5-0.2v0c1.1-0.4,2-0.9,2.9-1.5h0v0c0,0,0,0,0,0
		h0c1.3-0.8,2.2-1.7,2.8-2.7l0,0l0-0.1c0.2-0.3,0.3-0.5,0.4-0.8l7.7,0c-1.6,3.2-3.7,5.5-6.2,7C408.7,549.1,404.4,550.2,399.1,550.2"
		/>
	<path class="st1" d="M388.1,516L388.1,516v-0.5V516 M412.2,527.9h-27v-0.5h26.4l-0.3-2.4c-0.3-2.5-0.8-4.5-1.4-6.1
		c-0.6-1.4-1.3-2.6-2.1-3.6l0,0l-0.4-0.4c0,0,0,0,0,0l-0.4-0.4l0,0c-1-0.9-2.2-1.6-3.5-2c-1.5-0.5-3.2-0.7-5-0.7v0.5v-0.5
		c-2.4,0-4.5,0.4-6.3,1.2c-1.6,0.8-3,1.8-4.1,3.1h0c-1,1.2-1.8,2.5-2.2,3.9c-0.2,0.6-0.4,1.3-0.5,2.1l0.5,0.1l-0.5-0.1
		c-0.1,0.8-0.2,1.8-0.2,3.1l-0.1,2.1l-0.5,0l0.1-2.1c0-1.1,0.1-1.9,0.2-2.6h0l0-0.2c0-0.1,0-0.2,0-0.3l0.1-0.5
		c0.1-0.6,0.3-1.2,0.4-1.7c0.4-1.2,0.9-2.3,1.6-3.3h0l0.7-0.9c1.1-1.4,2.6-2.4,4.3-3.2c1.9-0.9,4.1-1.3,6.5-1.3
		c1.9,0,3.6,0.2,5.1,0.8c1.2,0.4,2.3,1,3.3,1.8l0,0l0.4,0.4l0.2,0.2c0.1,0.1,0.1,0.1,0.2,0.2l0.7,0.8l0,0c0.8,0.9,1.4,2,1.9,3.4
		c0.7,1.7,1.1,3.7,1.5,6.3L412.2,527.9 M389.8,508.7L389.8,508.7 M378,520.2L378,520.2 M378.1,537.5l-0.1,0h0L378.1,537.5
		 M407.2,543.3l0.3,0.3L407.2,543.3 M378.1,537.5c1.1,2.7,2.5,4.9,4.4,6.8c1.9,1.9,4.2,3.3,7,4.4c2.8,1,6,1.6,9.6,1.6
		c5.3,0,9.5-1.1,13-3.2c2.5-1.5,4.6-3.8,6.2-7l-7.7,0c-0.1,0.3-0.3,0.5-0.4,0.8l0,0.1l0,0c-0.6,1-1.5,1.9-2.8,2.7h0c0,0,0,0,0,0h0
		c-0.9,0.6-1.9,1.1-2.9,1.5v0l-0.5,0.2c-0.1,0-0.2,0.1-0.3,0.1l-0.3,0.1v0c-1.1,0.3-2.4,0.4-3.7,0.4c-2.1,0-4.1-0.3-5.9-0.8
		c-1.4-0.4-2.7-1.1-3.8-1.9l0,0.1l-0.4-0.4l-0.4-0.4l-0.4-0.4l0,0c-1.3-1.3-2.1-2.9-2.6-4.7h0c-0.6-1.9-0.9-4-1-6.2l-0.1-2.8l35.8,0
		c-0.1-2-0.4-3.7-0.9-5.8l-0.1-0.2c0-0.1-0.1-0.2-0.1-0.3l0-0.1c-0.8-2.9-2.1-5.4-3.9-7.7c-1.8-2.2-4-4-6.8-5.4c-2.7-1.3-6-2-9.9-2
		c-3.5,0-6.6,0.6-9.3,1.7c-2.6,1.1-4.9,2.5-6.8,4.3v0.1h-0.1c-0.1,0.1-0.2,0.1-0.2,0.2l-0.3,0.3c-1.8,1.8-3.2,4-4.3,6.5
		c-1.1,2.6-1.6,5.5-1.6,8.6C376.5,532,377,534.9,378.1,537.5 M399.1,550.8L399.1,550.8v-0.5V550.8c-3.7,0-6.9-0.6-9.8-1.6
		c-2.9-1.1-5.3-2.6-7.2-4.5c-2-1.9-3.5-4.2-4.6-6.9c-1.1-2.7-1.6-5.7-1.6-9c0-3.2,0.6-6.1,1.7-8.8c1.1-2.7,2.7-5,4.7-7v0
		c2-2,4.5-3.5,7.3-4.7c2.8-1.1,6-1.7,9.5-1.7c4,0,7.3,0.7,10.1,2c2.9,1.4,5.1,3.2,7,5.5c1.8,2.3,3.1,4.9,4,8c0.7,2.5,1.1,4.6,1.1,7
		l-35.8,0l0.1,2.2c0.1,2.2,0.4,4.3,1,6.1c0.6,1.9,1.5,3.5,2.9,4.8l0.4,0.4l0,0c1.2,1,2.6,1.7,4.1,2.2c1.7,0.5,3.6,0.8,5.7,0.8
		c1.5,0,2.9-0.2,4.1-0.6h0c1.2-0.4,2.3-1,3.4-1.7c1.2-0.8,2.1-1.7,2.6-2.6c0.2-0.4,0.4-0.7,0.6-1.1l8.9,0c-1.7,3.7-4,6.3-6.8,7.9
		C408.8,549.6,404.5,550.7,399.1,550.8"/>
	<path class="st1" d="M382.5,511.2l-0.9,0.9c-2.1,2.1-3.8,4.5-4.9,7.4c-1.1,2.8-1.7,5.9-1.7,9.2c0,3.4,0.6,6.6,1.7,9.4
		c1.1,2.8,2.7,5.3,4.8,7.3c2.1,2,4.6,3.6,7.6,4.7c3,1.1,6.4,1.7,10.2,1.7c5.5,0,10.1-1.2,13.8-3.4c3.2-1.9,5.7-4.9,7.5-9.2l0.3-0.7
		l-11.2,0l-0.1,0.3c-0.1,0.4-0.3,0.8-0.6,1.2c-0.5,0.8-1.2,1.6-2.3,2.3c-1,0.7-2,1.2-3.1,1.5h0h0c-1.1,0.4-2.3,0.5-3.8,0.5
		c-2,0-3.8-0.2-5.4-0.7c-1.6-0.5-3-1.3-4.1-2.3l-0.2-0.2c-1.1-1.1-1.9-2.5-2.4-4.2c-0.5-1.7-0.8-3.7-0.9-5.9l0-1.1l35.8,0l0-0.5
		v-0.4c0-2.6-0.4-4.8-1.1-7.4l0-0.1h0c0,0,0,0,0,0c-0.9-3.1-2.2-5.9-4.2-8.3c-1.9-2.4-4.3-4.3-7.3-5.8c-2.9-1.4-6.4-2.2-10.5-2.2
		h-0.1H399c-3.6,0-6.9,0.6-9.8,1.8C386.6,508.2,384.4,509.6,382.5,511.2L382.5,511.2 M399.1,553.9c-4,0-7.6-0.6-10.9-1.8
		c-3.2-1.2-6-2.9-8.3-5.2c-2.3-2.3-4-4.9-5.3-8c-1.2-3.1-1.8-6.5-1.8-10.2c0-3.6,0.6-6.9,1.9-10c1.3-3.1,3.1-5.8,5.4-8.1
		c2.4-2.3,5.1-4.1,8.4-5.3c3.2-1.3,6.8-1.9,10.7-1.9v-0.5v0.5c4.3,0,8.2,0.8,11.5,2.4c3.3,1.6,6,3.7,8.1,6.4
		c2.1,2.7,3.6,5.7,4.6,9.1c0.7,2.7,1.2,5.2,1.2,8c0,0.6,0,1.3-0.1,2l-0.1,1l-35.5,0l0.1,0.6c0.1,1.3,0.4,2.6,0.7,3.6
		c0.4,1.3,0.9,2.3,1.6,3.1l-0.7,0.8l0.8,0.7l0.7-0.8c0.8,0.6,1.8,1.1,2.9,1.5c1.4,0.4,2.9,0.7,4.8,0.7c1.3,0,2.3-0.1,3.1-0.4
		c0.9-0.3,1.7-0.7,2.6-1.3c0.9-0.6,1.4-1.1,1.7-1.6c0.3-0.5,0.5-1.1,0.7-1.8l0.2-0.7l15.7,0l-0.5,1.4c-2,5.7-5,9.9-9.3,12.4
		C409.9,552.7,404.9,553.9,399.1,553.9"/>
	<path class="st1" d="M399.1,550.8L399.1,550.8c5.3,0,9.7-1.1,13.3-3.3c2.8-1.7,5.1-4.3,6.8-7.9l-8.9,0c-0.1,0.4-0.3,0.7-0.6,1.1
		c-0.6,0.9-1.4,1.9-2.6,2.6c-1.1,0.7-2.2,1.3-3.4,1.7h0c-1.2,0.4-2.6,0.6-4.1,0.6c-2.1,0-4-0.3-5.7-0.8c-1.5-0.5-2.9-1.2-4.1-2.2
		l0,0l-0.4-0.4c-1.4-1.3-2.3-3-2.9-4.8c-0.6-1.9-0.9-3.9-1-6.1l-0.1-2.2l35.8,0c0-2.4-0.4-4.5-1.1-7c-0.8-3-2.1-5.6-4-8
		c-1.8-2.3-4.1-4.1-7-5.5c-2.8-1.4-6.1-2.1-10.1-2.1c-3.5,0-6.7,0.6-9.5,1.7c-2.9,1.1-5.3,2.7-7.3,4.7c-2,2-3.6,4.3-4.7,7
		c-1.1,2.7-1.7,5.6-1.7,8.8c0,3.3,0.5,6.3,1.6,9c1.1,2.7,2.6,5,4.6,6.9c1.9,1.9,4.3,3.4,7.2,4.5
		C392.2,550.2,395.4,550.8,399.1,550.8 M399.1,551.8c-3.8,0-7.2-0.6-10.2-1.7c-3-1.1-5.5-2.7-7.6-4.7c-2.1-2-3.7-4.5-4.8-7.3
		c-1.1-2.8-1.7-6-1.7-9.4c0-3.3,0.6-6.4,1.7-9.2c1.2-2.9,2.8-5.3,4.9-7.4l0.9-0.9v0.1c1.9-1.7,4.2-3.1,6.8-4.1
		c2.9-1.2,6.2-1.8,9.8-1.8h0.1h0.1c4.1,0,7.5,0.7,10.5,2.1c3,1.5,5.4,3.4,7.3,5.8c1.9,2.4,3.3,5.2,4.2,8.3v0l0,0l0,0.1
		c0.7,2.6,1.1,4.8,1.1,7.4v0.4l0,0.5l-35.8,0l0,1.1c0.1,2.1,0.4,4.1,0.9,5.9c0.5,1.6,1.3,3.1,2.4,4.2l0.2,0.2c1.1,1,2.5,1.8,4.1,2.3
		c1.6,0.5,3.4,0.7,5.4,0.7c1.5,0,2.7-0.2,3.8-0.5h0h0c1.1-0.4,2.1-0.9,3.1-1.6c1.1-0.7,1.9-1.5,2.3-2.3c0.3-0.4,0.5-0.8,0.6-1.2
		l0.1-0.3l11.2,0l-0.3,0.7c-1.8,4.2-4.3,7.2-7.5,9.2C409.2,550.6,404.6,551.8,399.1,551.8 M406.6,538.7L406.6,538.7 M405.1,540.2
		L405.1,540.2 M399.6,541.3L399.6,541.3 M399.1,554.9c-4.1,0-7.9-0.6-11.3-1.9c-3.4-1.2-6.3-3.1-8.7-5.4c-2.4-2.4-4.2-5.2-5.5-8.4
		c-1.3-3.3-1.9-6.8-1.9-10.6c0-3.7,0.7-7.2,2-10.4c1.3-3.2,3.2-6,5.7-8.4c2.4-2.4,5.4-4.2,8.7-5.6c3.4-1.4,7.1-2,11.1-2v0.5v0.5
		c-3.9,0-7.5,0.6-10.7,1.9c-3.2,1.3-6,3.1-8.4,5.3c-2.3,2.3-4.1,5-5.4,8.1c-1.3,3.1-1.9,6.4-1.9,10c0,3.7,0.6,7.1,1.8,10.2
		c1.2,3.1,3,5.8,5.3,8c2.3,2.2,5.1,4,8.3,5.2c3.3,1.2,6.9,1.8,10.9,1.8c5.8,0,10.8-1.2,14.9-3.7c4.2-2.5,7.3-6.7,9.3-12.4l0.5-1.4
		l-15.7,0l-0.2,0.7c-0.2,0.7-0.4,1.3-0.7,1.8c-0.3,0.5-0.8,1.1-1.7,1.6c-0.9,0.6-1.8,1-2.6,1.3c-0.9,0.3-1.8,0.4-3.1,0.4
		c-1.8,0-3.4-0.2-4.8-0.6c-1.2-0.4-2.1-0.9-2.9-1.5l-0.7,0.8l-0.8-0.7l0.7-0.8c-0.7-0.7-1.2-1.8-1.6-3.1c-0.3-1.1-0.6-2.3-0.7-3.6
		l-0.1-0.6l35.5-0.1l0.1-1c0.1-0.7,0.1-1.3,0.1-2c0-2.8-0.5-5.3-1.2-8c-0.9-3.4-2.4-6.4-4.6-9.1c-2.1-2.7-4.8-4.8-8.1-6.4
		c-3.3-1.6-7.1-2.4-11.5-2.4v-0.5v-0.5h0.1c4.4,0,8.4,0.8,11.9,2.5c3.4,1.6,6.2,3.9,8.4,6.7c2.2,2.7,3.7,5.9,4.7,9.4h0l0,0.1l0,0
		c0.8,2.7,1.2,5.4,1.2,8.3c0,0.7,0,1.4-0.1,2.1l-0.1,2l-35.3,0c0.1,1.1,0.3,2,0.6,2.9c0.4,1.4,1,2.4,1.7,3c0.8,0.7,1.7,1.2,3,1.6
		c1.2,0.4,2.7,0.6,4.4,0.6c1.2,0,2.1-0.1,2.8-0.4h0c0.8-0.2,1.5-0.6,2.4-1.2v0c0.8-0.5,1.1-0.9,1.4-1.3c0.2-0.4,0.4-0.9,0.6-1.6
		l0.5-1.5l18-0.1l-1,2.8c-2,5.9-5.2,10.3-9.7,13C410.2,553.7,405,554.9,399.1,554.9"/>
	<path class="st1" d="M410.4,526.3h-24.2l0-1.1v0c0-1.3,0.1-2.2,0.2-3c0.1-0.8,0.3-1.4,0.4-2c0.4-1.3,1.1-2.5,2-3.6
		c1-1.1,2.2-2.1,3.8-2.8c1.6-0.8,3.5-1.1,5.8-1.1v-0.5v0.5c1.7,0,3.3,0.2,4.6,0.7c1.2,0.4,2.2,1,3.1,1.8l-0.7,0.7l-0.8,0.7
		c-0.6-0.5-1.3-0.9-2.2-1.2c-1.1-0.4-2.4-0.6-4-0.6c-2,0-3.7,0.3-4.9,0.9c-1.3,0.6-2.3,1.4-3.1,2.3c-0.8,0.9-1.3,1.9-1.6,2.8
		c-0.2,0.5-0.3,1-0.4,1.6c-0.1,0.3-0.1,0.7-0.1,1.1l0,0.6H408l-0.1-0.6c-0.3-1.5-0.6-2.6-1-3.6c-0.4-1.1-0.9-1.9-1.5-2.5l0.8-0.7
		l0.7-0.7c0.7,0.9,1.4,1.9,1.9,3.2c0.6,1.5,1.1,3.4,1.4,5.9L410.4,526.3"/>
	<path class="st1" d="M389.5,523.2h17.2c-0.2-1.1-0.5-2-0.8-2.8c-0.5-1.2-1-1.9-1.6-2.6c-0.6-0.6-1.3-1-2.2-1.3
		c-1-0.3-2.2-0.5-3.6-0.5c-1.9,0-3.4,0.3-4.4,0.8c-1.2,0.6-2.1,1.3-2.7,2c-0.7,0.8-1.1,1.6-1.4,2.5c-0.2,0.5-0.3,0.9-0.3,1.5
		C389.6,522.9,389.5,523,389.5,523.2 M411.6,527.4h-26.4h0v0l0.1-2.1c0-1.3,0.1-2.3,0.2-3.1l0.5,0.1l-0.5-0.1
		c0.1-0.8,0.3-1.5,0.5-2.1c0.4-1.4,1.2-2.7,2.2-3.9h0c1.1-1.3,2.5-2.3,4.1-3.1c1.8-0.9,3.9-1.2,6.3-1.2v0.5v0.5
		c-2.3,0-4.2,0.4-5.8,1.1c-1.5,0.7-2.8,1.7-3.8,2.8c-0.9,1.1-1.6,2.3-2,3.6c-0.2,0.6-0.3,1.2-0.4,2c-0.1,0.8-0.2,1.7-0.2,3v0l0,1.1
		h24.2l-0.1-1.2c-0.3-2.5-0.8-4.4-1.4-5.9c-0.5-1.3-1.2-2.4-1.9-3.2l-0.7,0.7l-0.8,0.7c0.6,0.6,1,1.4,1.5,2.5c0.4,0.9,0.7,2.1,1,3.6
		l0.1,0.6h-19.6l0-0.6c0-0.4,0.1-0.8,0.1-1.1v0c0.1-0.6,0.2-1.1,0.4-1.6c0.3-1,0.8-1.9,1.6-2.8c0.8-0.9,1.8-1.6,3.1-2.3
		c1.2-0.6,2.9-0.9,4.9-0.9c1.6,0,2.9,0.2,4,0.6c0.9,0.3,1.6,0.7,2.2,1.2l0.8-0.8l0.7-0.7c-0.9-0.8-1.9-1.4-3.1-1.8
		c-1.4-0.5-2.9-0.7-4.6-0.7v-0.5v-0.5c1.8,0,3.5,0.2,5,0.7c1.3,0.5,2.5,1.1,3.5,2l0,0l0.4,0.4c0,0,0,0,0,0l0.4,0.4l0,0
		c0.9,1,1.6,2.1,2.1,3.6c0.6,1.6,1.1,3.6,1.4,6.1L411.6,527.4"/>
</g>
</svg>
