<?xml version="1.0" encoding="iso-8859-1"?>
<!-- Generator: Adobe Illustrator 19.0.0, SVG Export Plug-In . SVG Version: 6.00 Build 0)  -->
<svg version="1.1" id="Capa_1" xmlns="http://www.w3.org/2000/svg" xmlns:xlink="http://www.w3.org/1999/xlink" x="0px" y="0px"
	 viewBox="0 0 483.788 483.788" style="enable-background:new 0 0 483.788 483.788;" xml:space="preserve">
<path style="fill:#D4E1F4;" d="M336.457,211.069c71.053,0,128.522,57.469,128.522,128.522S407.51,468.114,336.457,468.114
	c-38.139,0-72.098-16.718-95.608-42.841c-20.376-22.988-32.914-52.767-32.914-85.682c0-43.363,21.42-81.502,54.335-105.012
	C283.167,219.951,308.767,211.069,336.457,211.069z"/>
<g>
	<circle style="fill:#4DCFE0;" cx="167.184" cy="107.625" r="91.951"/>
	<path style="fill:#4DCFE0;" d="M261.224,233.535l1.045,1.045c-32.914,23.51-54.335,61.649-54.335,105.012
		c0,32.914,12.539,63.216,32.914,85.682l-0.522,0.522H18.808v-77.845c0-82.025,66.351-148.376,148.376-148.376
		c18.286,0,35.004,3.135,51.2,8.882C234.057,214.204,248.163,222.563,261.224,233.535z"/>
</g>
<g>
	<path style="fill:#3A2C51;" d="M336.457,195.396c-26.645,0-51.2,6.792-73.143,19.853c-10.449-7.837-21.943-14.106-34.482-19.331
		c27.69-19.331,45.976-51.722,45.976-88.294C274.808,48.065,226.743,0,167.184,0S59.559,48.065,59.559,107.624
		c0,36.571,18.286,68.963,45.976,88.294c-60.082,24.555-102.4,83.592-102.4,152.033v77.845c0,8.882,6.792,15.673,15.673,15.673
		H234.58c27.167,27.167,63.739,42.318,101.878,42.318c79.412,0,144.196-64.784,144.196-144.196S415.869,195.396,336.457,195.396z
		 M90.906,107.624c0-42.318,33.959-76.278,76.278-76.278s76.278,33.959,76.278,76.278s-33.959,76.278-76.278,76.278
		S90.906,149.943,90.906,107.624z M34.482,347.951c0-73.143,59.559-132.702,132.702-132.702c15.673,0,30.824,2.612,45.976,7.837
		c8.882,3.135,16.718,7.314,24.033,12.016c-28.212,27.167-44.931,64.784-44.931,104.49c0,24.555,6.269,49.11,18.808,70.531H34.482
		V347.951z M336.457,452.441c-31.869,0-62.171-13.584-84.114-37.616c-18.808-20.898-28.735-48.065-28.735-75.233
		c0-37.094,17.241-70.531,47.543-92.473l0,0c18.286-13.584,40.751-20.376,64.784-20.376c62.171,0,112.849,50.678,112.849,112.849
		S398.629,452.441,336.457,452.441z"/>
	<path style="fill:#3A2C51;" d="M383.478,365.192h-53.812c-8.882,0-15.673-6.792-15.673-15.673v-71.053
		c0-8.882,6.792-15.673,15.673-15.673c8.882,0,15.673,6.792,15.673,15.673v55.38h38.139c8.882,0,15.673,6.792,15.673,15.673
		S392.359,365.192,383.478,365.192z"/>
</g>
<g>
</g>
<g>
</g>
<g>
</g>
<g>
</g>
<g>
</g>
<g>
</g>
<g>
</g>
<g>
</g>
<g>
</g>
<g>
</g>
<g>
</g>
<g>
</g>
<g>
</g>
<g>
</g>
<g>
</g>
</svg>
